<svg xmlns="http://www.w3.org/2000/svg" viewBox="0 0 200 200">
  <rect width="200" height="200" fill="white" />
  <!-- QR code pattern simulation -->
  <rect x="20" y="20" width="40" height="40" fill="black" />
  <rect x="30" y="30" width="20" height="20" fill="white" />
  <rect x="140" y="20" width="40" height="40" fill="black" />
  <rect x="150" y="30" width="20" height="20" fill="white" />
  <rect x="20" y="140" width="40" height="40" fill="black" />
  <rect x="30" y="150" width="20" height="20" fill="white" />
  
  <!-- Data pattern simulation -->
  <rect x="80" y="20" width="10" height="10" fill="black" />
  <rect x="100" y="20" width="10" height="10" fill="black" />
  <rect x="120" y="20" width="10" height="10" fill="black" />
  
  <rect x="20" y="80" width="10" height="10" fill="black" />
  <rect x="40" y="80" width="10" height="10" fill="black" />
  <rect x="60" y="80" width="10" height="10" fill="black" />
  <rect x="90" y="80" width="10" height="10" fill="black" />
  <rect x="120" y="80" width="10" height="10" fill="black" />
  
  <rect x="20" y="100" width="10" height="10" fill="black" />
  <rect x="50" y="100" width="10" height="10" fill="black" />
  <rect x="80" y="100" width="10" height="10" fill="black" />
  <rect x="110" y="100" width="10" height="10" fill="black" />
  <rect x="140" y="100" width="10" height="10" fill="black" />
  <rect x="170" y="110" width="10" height="10" fill="black" />
  
  <rect x="80" y="140" width="10" height="10" fill="black" />
  <rect x="110" y="140" width="10" height="10" fill="black" />
  <rect x="140" y="140" width="10" height="10" fill="black" />
  <rect x="170" y="140" width="10" height="10" fill="black" />
  
  <rect x="80" y="170" width="10" height="10" fill="black" />
  <rect x="100" y="170" width="10" height="10" fill="black" />
  <rect x="120" y="170" width="10" height="10" fill="black" />
  <rect x="140" y="170" width="10" height="10" fill="black" />
  
  <!-- Logo in center (simplified for Heart Mirror) -->
  <circle cx="100" cy="100" r="20" fill="white" stroke="#866a5a" stroke-width="2" />
  <path d="M100,85 C95,80 85,80 85,95 C85,110 100,115 100,115 C100,115 115,110 115,95 C115,80 105,80 100,85 Z" fill="#866a5a" />
</svg>

